<svg width="18" height="16" viewBox="0 0 18 16" fill="none" xmlns="http://www.w3.org/2000/svg">
<path fill-rule="evenodd" clip-rule="evenodd" d="M8.99993 0.0548096C4.51324 0.0548096 0.875 3.65565 0.875 8.098C0.875 11.6518 3.20304 14.6666 6.43133 15.7303C6.83725 15.8049 6.98633 15.5558 6.98633 15.3434C6.98633 15.1516 6.97879 14.518 6.97529 13.8459C4.71493 14.3325 4.23796 12.8969 4.23796 12.8969C3.86837 11.9672 3.33584 11.72 3.33584 11.72C2.59853 11.2208 3.3914 11.2312 3.3914 11.2312C4.20715 11.2878 4.63689 12.0601 4.63689 12.0601C5.36155 13.2894 6.53762 12.9341 7.00126 12.7287C7.07418 12.2088 7.28475 11.8539 7.51711 11.653C5.71245 11.4499 3.81522 10.7601 3.81522 7.67818C3.81522 6.80005 4.13275 6.08254 4.6525 5.51914C4.568 5.31669 4.2899 4.49863 4.73107 3.39073C4.73107 3.39073 5.41322 3.17456 6.96587 4.21519C7.61411 4.03685 8.30931 3.94721 8.99993 3.94415C9.69015 3.94721 10.3858 4.03658 11.0352 4.21493C12.586 3.1743 13.2673 3.39047 13.2673 3.39047C13.7096 4.49823 13.4315 5.31642 13.3471 5.51887C13.8681 6.08228 14.1833 6.79978 14.1833 7.67792C14.1833 10.7672 12.2826 11.4472 10.4733 11.6465C10.7649 11.8961 11.0246 12.3857 11.0246 13.136C11.0246 14.2122 11.0152 15.0783 11.0152 15.3432C11.0152 15.5573 11.1615 15.8081 11.5732 15.7291C14.7996 14.6644 17.125 11.6505 17.125 8.098C17.1249 3.65592 13.487 0.0548096 8.99993 0.0548096Z" fill="#EFEEF1"/>
<path d="M3.95232 11.6029C3.93443 11.6429 3.87092 11.6549 3.81307 11.6276C3.75387 11.6015 3.72091 11.547 3.74001 11.5069C3.7575 11.4656 3.82114 11.4543 3.87994 11.4819C3.93914 11.5081 3.97291 11.563 3.95232 11.6029ZM4.28142 11.9664C4.24281 12.002 4.16706 11.9855 4.11566 11.9291C4.06238 11.8732 4.05243 11.7982 4.09185 11.7621C4.13194 11.7267 4.2054 11.7435 4.25868 11.7994C4.3117 11.8561 4.32206 11.9303 4.28142 11.9664ZM4.60191 12.4295C4.55213 12.4639 4.47059 12.4318 4.42027 12.3603C4.37049 12.2886 4.37049 12.2027 4.42162 12.1685C4.4718 12.1341 4.55213 12.1652 4.60326 12.236C4.65277 12.3086 4.65277 12.3946 4.60191 12.4295ZM5.04066 12.8772C4.99626 12.9258 4.90127 12.9128 4.83185 12.8466C4.76094 12.7817 4.74116 12.6894 4.7857 12.6409C4.83091 12.5922 4.9263 12.6058 4.99613 12.6715C5.06703 12.7363 5.08816 12.8288 5.04066 12.8772ZM5.64612 13.1371C5.62634 13.2001 5.53512 13.2287 5.44295 13.2018C5.35106 13.1742 5.29092 13.1006 5.30975 13.0369C5.32859 12.9734 5.42048 12.9437 5.51319 12.9723C5.60508 12.9997 5.66522 13.073 5.64612 13.1371ZM6.31118 13.1851C6.31346 13.2515 6.23543 13.3063 6.13896 13.3077C6.04168 13.3099 5.96297 13.2561 5.96203 13.1909C5.96203 13.1239 6.03845 13.0697 6.13559 13.0678C6.23206 13.0661 6.31118 13.1195 6.31118 13.1851ZM6.92982 13.081C6.94139 13.1456 6.87425 13.212 6.77832 13.2298C6.68414 13.2471 6.59668 13.2068 6.58457 13.1428C6.573 13.0765 6.64135 13.01 6.73553 12.9928C6.8316 12.9764 6.91771 13.0153 6.92982 13.081Z" fill="#EFEEF1"/>
</svg>
