<svg width="18" height="20" viewBox="0 0 18 20" fill="none" xmlns="http://www.w3.org/2000/svg">
<path d="M17.0549 4.76798L9.94363 0.638787C9.49515 0.383344 8.91121 0.383344 8.45918 0.638787L1.27193 4.76798C0.809097 5.03423 0.481567 5.53463 0.481567 6.06987V14.3173C0.481567 14.8525 0.817644 15.3531 1.28047 15.6208L3.17937 16.6993C4.08697 17.1464 4.40772 17.1464 4.82072 17.1464C6.16455 17.1464 6.93217 16.3337 6.93217 14.9164V6.77411C6.93217 6.65913 6.87234 6.48803 6.75945 6.48803H5.85266C5.73784 6.48803 5.48078 6.65913 5.48078 6.77395V14.9162C5.48078 15.5445 4.91248 16.1697 3.85039 15.6387L1.88828 14.5077C1.81991 14.4706 1.77169 14.396 1.77169 14.3173V6.06987C1.77169 5.99214 1.86119 5.91409 1.93005 5.87426L9.09408 1.75216C9.16101 1.71426 9.25938 1.71426 9.32614 1.75216L16.4028 5.87329C16.4705 5.91409 16.4466 5.98972 16.4466 6.06987V14.3173C16.4466 14.396 16.4761 14.4726 16.4092 14.5105L9.2997 18.635C9.23874 18.6716 9.16311 18.6716 9.09634 18.635L7.27292 17.5466C7.21793 17.5147 7.15262 17.5032 7.09988 17.5327C6.59254 17.8203 6.49901 17.8585 6.02312 18.0235C5.90604 18.0643 5.73332 18.1351 6.08923 18.3346L8.47563 19.7463C8.70347 19.8779 8.96193 19.9472 9.22503 19.9472C9.48983 19.9472 9.74914 19.8785 9.97766 19.7463L17.0548 15.6208C17.5176 15.3512 17.7369 14.8525 17.7369 14.3173V6.06987C17.7369 5.53463 17.5176 5.03552 17.0549 4.76798ZM11.4331 13.0104C9.54208 13.0104 9.12553 12.4887 8.98668 11.5484C8.97056 11.4471 8.8846 11.326 8.78155 11.326H7.85734C7.74301 11.326 7.65109 11.4647 7.65109 11.5785C7.65109 12.7825 8.30566 14.2413 11.4332 14.2413C13.6972 14.2413 14.9953 13.3616 14.9953 11.8048C14.9953 10.2611 13.9524 9.85605 11.7567 9.56545C9.5374 9.27211 9.31195 9.12391 9.31195 8.60399C9.31195 8.17534 9.50289 7.60366 11.1462 7.60366C12.6145 7.60366 13.1557 7.91877 13.3784 8.90846C13.3974 9.00151 13.4824 9.06827 13.5784 9.06827H14.5063C14.5634 9.06827 14.6179 9.04521 14.6579 9.00441C14.6966 8.96054 14.7171 8.90555 14.7119 8.84653C14.5682 7.14228 13.436 6.34805 11.146 6.34805C9.10908 6.34805 7.89395 7.20824 7.89395 8.65011C7.89395 10.2141 9.10295 10.6462 11.0583 10.8396C13.3974 11.0689 13.5793 11.4108 13.5793 11.8709C13.5793 12.67 12.9378 13.0104 11.4331 13.0104Z" fill="#82BC4F"/>
</svg>
