<svg width="23" height="20" viewBox="0 0 23 20" fill="none" xmlns="http://www.w3.org/2000/svg">
<path d="M6.46481 15.2639C6.46481 15.835 6.2459 16.3827 5.85624 16.7865C5.46658 17.1903 4.93809 17.4172 4.38703 17.4172C3.83597 17.4172 3.30748 17.1903 2.91782 16.7865C2.52816 16.3827 2.30925 15.835 2.30925 15.2639H0.109253C0.109253 16.4397 0.559946 17.5673 1.36218 18.3987C2.16442 19.2301 3.25249 19.6972 4.38703 19.6972C5.52157 19.6972 6.60964 19.2301 7.41188 18.3987C8.21412 17.5673 8.66481 16.4397 8.66481 15.2639V8.93056H6.46481V15.2639ZM7.07592 5.7639C7.24513 5.7639 7.41055 5.71189 7.55124 5.61447C7.69194 5.51704 7.80159 5.37856 7.86635 5.21654C7.9311 5.05453 7.94805 4.87625 7.91504 4.70425C7.88202 4.53226 7.80054 4.37427 7.68089 4.25027C7.56124 4.12626 7.40879 4.04182 7.24283 4.0076C7.07687 3.97339 6.90485 3.99095 6.74851 4.05806C6.59218 4.12517 6.45856 4.23882 6.36455 4.38463C6.27054 4.53044 6.22036 4.70187 6.22036 4.87723C6.22036 5.11239 6.3105 5.33792 6.47095 5.5042C6.6314 5.67048 6.84901 5.7639 7.07592 5.7639ZM11.1093 19.6972H12.8204V15.8972H11.1093V19.6972ZM19.5548 3.23057H15.8881C15.5892 2.47837 15.0807 1.83559 14.4276 1.38434C13.7745 0.933098 13.0064 0.693877 12.2215 0.69724H7.44259C6.41484 0.693817 5.42735 1.11109 4.69492 1.85829C3.96249 2.6055 3.54436 3.62219 3.53148 4.68723V13.7692C3.53148 14.0044 3.62161 14.2299 3.78206 14.3962C3.94251 14.5625 4.16012 14.6559 4.38703 14.6559C4.61394 14.6559 4.83155 14.5625 4.992 14.3962C5.15245 14.2299 5.24259 14.0044 5.24259 13.7692V4.68723C5.2554 4.09253 5.49322 3.52686 5.90477 3.1122C6.31631 2.69754 6.86861 2.4671 7.44259 2.47057H12.1359C12.4263 2.45872 12.716 2.50694 12.9882 2.6124C13.2603 2.71786 13.5095 2.87846 13.7211 3.08481C13.9328 3.29117 14.1026 3.53915 14.2208 3.81427C14.3389 4.0894 14.403 4.38616 14.4093 4.68723C14.3932 5.28751 14.1494 5.85701 13.7306 6.27205C13.3118 6.68708 12.7519 6.91413 12.1726 6.9039C11.9457 6.9039 11.7281 6.99731 11.5676 7.16359C11.4072 7.32988 11.317 7.5554 11.317 7.79056C11.317 8.02572 11.4072 8.25124 11.5676 8.41753C11.7281 8.58381 11.9457 8.67723 12.1726 8.67723C13.1502 8.68459 14.0947 8.3111 14.8191 7.63075C15.5435 6.9504 15.9948 6.01285 16.0837 5.0039H19.5548C19.6656 5.0039 19.7752 5.02651 19.8775 5.07043C19.9799 5.11435 20.0728 5.17873 20.1511 5.25989C20.2294 5.34105 20.2916 5.43739 20.3339 5.54343C20.3763 5.64947 20.3981 5.76312 20.3981 5.8779V15.8972H17.9537V19.6972H22.1093V5.8779C22.106 5.17681 21.8359 4.50538 21.3575 4.00963C20.8792 3.51388 20.2313 3.2339 19.5548 3.23057Z" fill="#0470B8"/>
</svg>
