<svg width="20" height="18" viewBox="0 0 20 18" fill="none" xmlns="http://www.w3.org/2000/svg">
<path d="M10.6703 16.1405C10.4969 15.9873 10.3161 15.8335 10.1433 15.6632C10.0052 15.7908 9.87581 15.9104 9.73888 16.0295C8.02925 17.5033 6.26704 18.1168 5.22243 17.5203C4.2119 16.9495 3.89355 15.2632 4.29799 13.1417C4.34113 12.9118 4.39294 12.6818 4.45341 12.4518C4.27199 12.3984 4.09924 12.3493 3.92648 12.2916C1.77544 11.5574 0.359314 10.3651 0.359314 9.17216C0.359314 8.0225 1.68068 6.90649 3.74449 6.19097C3.9756 6.11407 4.21941 6.03772 4.47017 5.96937C4.41239 5.74777 4.36675 5.53471 4.32341 5.32859C3.89124 3.17507 4.19341 1.4546 5.21261 0.875234C6.27455 0.261695 8.03676 0.917952 9.80648 2.45954C9.9099 2.55299 10.0139 2.65551 10.126 2.7575C10.2901 2.60425 10.4455 2.451 10.6096 2.31483C12.2851 0.873098 13.9514 0.270239 14.9706 0.849603C16.0326 1.44552 16.344 3.2856 15.8691 5.56034C15.8431 5.70558 15.8113 5.84175 15.7743 5.98752C15.9904 6.04733 16.2059 6.11514 16.4046 6.18349C18.5118 6.89902 19.8765 8.01503 19.8592 9.19031C19.8592 10.3912 18.3997 11.5756 16.1614 12.3082C16.0406 12.3424 15.9199 12.3851 15.7986 12.4187C15.8506 12.5891 15.8847 12.7594 15.9193 12.9297C16.3682 15.1361 16.0227 16.942 14.9781 17.5385C14.7038 17.6911 14.3883 17.7689 14.0681 17.7628C13.1108 17.7612 11.8951 17.1786 10.6703 16.1405ZM12.3631 13.0141C11.8671 13.7273 11.3219 14.4102 10.7309 15.0587C10.895 15.2189 11.0591 15.3657 11.2232 15.5019C12.648 16.7114 13.9607 17.1631 14.5743 16.8139C14.7616 16.6647 14.9148 16.4824 15.0245 16.2776C15.1343 16.0727 15.1985 15.8497 15.2133 15.6215C15.338 14.7762 15.3028 13.9172 15.1093 13.083C15.0833 12.9297 15.0515 12.7765 15.0059 12.6147C14.1357 12.8029 13.2528 12.9364 12.3631 13.0141ZM5.12594 13.287C4.77234 15.1025 5.03119 16.4556 5.64594 16.8053C5.86373 16.8895 6.09888 16.9283 6.33472 16.9191C6.57056 16.9098 6.80131 16.8528 7.01064 16.7519C7.82497 16.4357 8.56658 15.9788 9.19577 15.4058C9.32519 15.3033 9.44595 15.1842 9.57595 15.0651C8.972 14.4164 8.4124 13.7336 7.90041 13.0205C7.01412 12.9521 6.13401 12.8272 5.26634 12.6467C5.21261 12.8694 5.16927 13.0819 5.12594 13.287ZM10.1526 14.4793C10.5327 14.0618 10.9123 13.602 11.2925 13.091C10.9123 13.1081 10.5154 13.1166 10.1179 13.1166C9.72039 13.1166 9.34946 13.1081 8.97795 13.091C9.36622 13.5929 9.75564 14.0618 10.1526 14.4793ZM8.33836 6.16533C8.01018 6.63363 7.69068 7.12649 7.3885 7.64765C7.08633 8.15867 6.81073 8.67823 6.5594 9.19618C6.81882 9.7072 7.09499 10.2268 7.39717 10.7554C7.69934 11.2664 8.01885 11.7699 8.34702 12.2457C8.91671 12.2799 9.51297 12.2991 10.1173 12.2991C10.7217 12.2991 11.326 12.282 11.905 12.2398C12.2158 11.7716 12.5353 11.2685 12.8381 10.749C13.1408 10.2294 13.4251 9.70133 13.6758 9.19031C13.4251 8.68784 13.1402 8.16828 12.8381 7.64819C12.5359 7.12809 12.2164 6.63363 11.8969 6.16587C11.3191 6.12315 10.7222 6.09752 10.1179 6.09752C9.51355 6.09752 8.91729 6.12262 8.33836 6.16533ZM5.48878 11.8639C6.08132 11.989 6.68104 12.083 7.28508 12.1453C7.07766 11.8217 6.87081 11.4976 6.67206 11.1569C6.48197 10.8248 6.29189 10.4927 6.11913 10.1605C5.86896 10.7394 5.66154 11.3113 5.48878 11.8639ZM13.5632 11.1484C13.3644 11.4891 13.1657 11.8127 12.9675 12.1282C13.5806 12.0573 14.1889 11.9549 14.7898 11.8217C14.6022 11.2467 14.3831 10.6809 14.1334 10.1264C13.952 10.467 13.7619 10.8077 13.5632 11.1484ZM4.01199 6.97431C2.25036 7.58785 1.18842 8.48119 1.18842 9.1807C1.222 9.40574 1.30335 9.62244 1.42778 9.81835C1.55221 10.0143 1.71729 10.1855 1.91352 10.3223C2.58754 10.8462 3.36048 11.2504 4.19342 11.5147C4.34884 11.5681 4.51292 11.6087 4.67701 11.6599C4.94229 10.822 5.26238 9.99981 5.63554 9.19779C5.26167 8.40949 4.94436 7.5993 4.68568 6.77247C4.45264 6.83014 4.22808 6.89742 4.01199 6.97431ZM14.6084 9.1807C14.9916 9.97253 15.3196 10.7862 15.5906 11.6167C15.7032 11.5825 15.8153 11.5483 15.9187 11.5142C17.8445 10.8841 19.0387 9.92132 19.0451 9.17162C19.0451 8.47318 17.9398 7.56969 16.1348 6.95669C15.9534 6.89742 15.7552 6.83761 15.5571 6.77781C15.2954 7.59629 14.9786 8.39883 14.6084 9.1807ZM13.5551 7.22154C13.7538 7.56222 13.9439 7.89488 14.1161 8.22702C14.356 7.68421 14.5636 7.12964 14.7378 6.56582C14.1512 6.4341 13.5573 6.33178 12.9588 6.25931C13.1662 6.57383 13.365 6.88941 13.5551 7.22154ZM5.49745 6.55888C5.67078 7.10407 5.87762 7.6578 6.11913 8.22808C6.29246 7.89595 6.48197 7.56382 6.67206 7.23168C6.86215 6.89955 7.06032 6.57596 7.26775 6.26038C6.64606 6.33567 6.05904 6.43766 5.49745 6.55888ZM11.1538 2.93852C11.0071 3.06614 10.8603 3.2023 10.713 3.339C11.3127 3.9795 11.8639 4.65748 12.3625 5.36811C13.2414 5.44651 14.113 5.58321 14.9706 5.77713C15.0053 5.64951 15.0284 5.52136 15.0573 5.39374C15.4617 3.43458 15.2127 1.93518 14.5564 1.56086C14.4123 1.48612 14.2489 1.4492 14.0837 1.45406C13.3783 1.45086 12.2955 1.95867 11.1538 2.93692V2.93852ZM5.62687 1.58222C5.01385 1.93144 4.77177 3.32832 5.13461 5.1684C5.17794 5.36437 5.22127 5.55981 5.27269 5.76432C6.13148 5.57752 7.00276 5.44373 7.88076 5.36384C8.38124 4.65231 8.93535 3.97426 9.53897 3.33473C9.44422 3.24075 9.34022 3.15585 9.24546 3.07041C8.04369 2.02008 6.88815 1.46581 6.13358 1.46581C5.95624 1.46022 5.78074 1.50054 5.62687 1.58222ZM11.2746 5.29602C10.9185 4.81978 10.5342 4.362 10.1237 3.92477C9.73541 4.34181 9.34657 4.80209 8.96813 5.29602C9.34831 5.27893 9.7279 5.27039 10.1167 5.27039C10.5056 5.27039 10.8944 5.27733 11.2746 5.29602ZM8.39036 9.21487C8.38226 8.99594 8.42099 8.77768 8.50433 8.5726C8.58767 8.36753 8.71398 8.17967 8.87602 8.01979C9.03806 7.85991 9.23265 7.73116 9.44863 7.64091C9.66461 7.55067 9.89774 7.5007 10.1347 7.49387C10.6127 7.50892 11.0647 7.69854 11.3917 8.02115C11.7187 8.34377 11.8939 8.77305 11.879 9.21487C11.8944 9.65706 11.7193 10.0868 11.3921 10.4098C11.065 10.7328 10.6125 10.9226 10.1341 10.9375C9.89704 10.9307 9.66379 10.8806 9.44772 10.7903C9.23166 10.6999 9.03703 10.571 8.87501 10.411C8.71299 10.2509 8.58678 10.0628 8.50361 9.85759C8.42044 9.65233 8.38195 9.43391 8.39036 9.21487Z" fill="#3996DB"/>
</svg>
