<svg width="27" height="562" viewBox="0 0 27 562" fill="none" xmlns="http://www.w3.org/2000/svg">
<path d="M12.6062 35.1278H13.1865V279.078H12.6062V35.1278Z" fill="#373243"/>
<rect x="12.6062" y="323.318" width="0.580311" height="240.158" fill="#373243"/>
<path d="M13 26.2479C19.9179 26.2479 25.5 20.4695 25.5 13.374C25.5 6.27845 19.9179 0.5 13 0.5C6.08209 0.5 0.5 6.27845 0.5 13.374C0.5 20.4695 6.08209 26.2479 13 26.2479Z" fill="#AFFFC5" fill-opacity="0.2" stroke="#14B86B"/>
<path d="M13.8342 11.8986V6L6 15.2693H12.0933V21.1679L19.9275 11.8986H13.8342Z" stroke="#14B86B" stroke-width="1.5" stroke-linecap="round" stroke-linejoin="round"/>
<circle cx="13.5" cy="300.426" r="13" fill="#AFFFC5" fill-opacity="0.2" stroke="#14B86B"/>
<path d="M14.8342 298.899V293L7 302.269H13.0933V308.168L20.9275 298.899H14.8342Z" stroke="#14B86B" stroke-width="1.5" stroke-linecap="round" stroke-linejoin="round"/>
</svg>
