<svg width="20" height="13" viewBox="0 0 20 13" fill="none" xmlns="http://www.w3.org/2000/svg">
<path d="M16.1296 0.305005C16.7514 0.449669 17.3165 0.775279 17.7534 1.24075C17.9941 1.49266 18.2031 1.77305 18.3758 2.07569C18.3838 2.10856 17.2552 2.86679 16.5708 3.28974C16.5459 3.30654 16.4473 3.19916 16.3356 3.03407C16.2105 2.81915 16.0331 2.63942 15.8197 2.51167C15.6064 2.38393 15.3642 2.31234 15.1157 2.3036C14.3289 2.24954 13.822 2.66153 13.8256 3.35037C13.8189 3.5196 13.8574 3.68757 13.9374 3.83687C14.1105 4.1948 14.4319 4.40957 15.4415 4.84712C17.2998 5.647 18.0975 6.1744 18.5898 6.92387C18.8681 7.39742 19.0395 7.92608 19.092 8.47283C19.1445 9.01958 19.0768 9.57119 18.8937 10.089C18.642 10.6569 18.243 11.1471 17.7379 11.5087C17.2328 11.8703 16.6402 12.0901 16.0215 12.1453C15.3638 12.2208 14.6993 12.2139 14.0433 12.1249C13.0386 11.9598 12.113 11.4775 11.4019 10.7487C11.1333 10.4461 10.9058 10.1094 10.7255 9.74717C10.8013 9.69077 10.8811 9.63999 10.9644 9.59523C11.0798 9.52949 11.5166 9.27821 11.9286 9.03934L12.6766 8.60105L12.8329 8.82896C13.0962 9.20548 13.4314 9.52622 13.8191 9.77274C14.2106 9.98751 14.6542 10.0893 15.1002 10.0667C15.5462 10.0441 15.9772 9.89811 16.3451 9.6449C16.5348 9.45995 16.6535 9.21411 16.6802 8.95047C16.7069 8.68683 16.64 8.4222 16.4912 8.20294C16.2896 7.9144 15.8776 7.67188 14.7066 7.1642C13.7884 6.8546 12.9521 6.34143 12.2602 5.66307C11.9307 5.28758 11.6874 4.84452 11.5473 4.36501C11.4437 3.81874 11.4284 3.25939 11.502 2.70828C11.6395 2.07411 11.9686 1.49753 12.4447 1.05666C12.9208 0.615801 13.521 0.331976 14.1639 0.243645C14.8185 0.165423 15.4811 0.186107 16.1296 0.305005ZM10.0352 1.38831L10.0432 2.45042H6.66111V12.0548H4.2761V2.45261H0.893984V1.40949C0.884989 1.05226 0.894742 0.694811 0.923203 0.338607C0.935622 0.321806 2.99192 0.313771 5.48504 0.318154L10.022 0.330572L10.0352 1.38831Z" fill="#007ACC"/>
</svg>
