<svg width="14" height="14" viewBox="0 0 14 14" fill="none" xmlns="http://www.w3.org/2000/svg">
<rect width="14" height="14" rx="2" fill="#1F1F1F"/>
<path d="M10.66 3.33C10.66 3.53 10.6167 3.68 10.53 3.78C10.45 3.88 10.3167 3.93 10.13 3.93C10.1167 4.07 10.0867 4.31333 10.04 4.66C9.97333 5.12667 9.93667 5.38667 9.93 5.44C9.33667 9.86 8.1 12.07 6.22 12.07C5.66667 12.07 5.23333 11.9133 4.92 11.6C4.61333 11.2867 4.46 10.8933 4.46 10.42C4.46 9.57333 4.82 8.82667 5.54 8.18C6.26 7.52667 7.20667 6.98667 8.38 6.56C8.45333 6.08667 8.51 5.66333 8.55 5.29L8.73 3.78C8.33 3.74 7.95667 3.72 7.61 3.72C6.68333 3.72 6 3.81 5.56 3.99C5.12 4.17 4.9 4.46333 4.9 4.87C4.9 5.07 4.96667 5.28667 5.1 5.52C5.14 5.58667 5.16 5.65667 5.16 5.73C5.16 5.87 5.08667 5.99667 4.94 6.11C4.8 6.21667 4.64667 6.27 4.48 6.27C4.26667 6.27 4.10333 6.18 3.99 6C3.80333 5.69333 3.71 5.33667 3.71 4.93C3.71 3.33 5.11 2.53 7.91 2.53C8.72333 2.53 9.45 2.61 10.09 2.77C10.47 2.86333 10.66 3.05 10.66 3.33ZM6.35 11C6.67667 11 7.00333 10.7533 7.33 10.26C7.65667 9.76667 7.94333 8.90333 8.19 7.67C6.56333 8.38333 5.75 9.25667 5.75 10.29C5.75 10.5167 5.80333 10.6933 5.91 10.82C6.01667 10.94 6.16333 11 6.35 11Z" fill="white"/>
</svg>
