<svg width="493" height="376" viewBox="0 0 493 376" fill="none" xmlns="http://www.w3.org/2000/svg">
<g clip-path="url(#clip0_297_116)">
<path opacity="0.1" d="M420.789 290.854H473.781C476.658 289.444 478.632 286.58 478.632 283.278C478.632 279.004 475.325 275.463 471.022 274.856C471.029 274.718 471.035 274.58 471.035 274.436C471.035 269.435 466.679 265.38 461.307 265.38C460.746 265.38 460.198 265.424 459.657 265.512C457.34 261.696 452.819 259.107 447.625 259.107C441.573 259.107 436.438 262.623 434.636 267.498C434.069 267.392 433.481 267.329 432.887 267.329C427.726 267.329 423.542 271.547 423.542 276.748C423.542 277.331 423.594 277.907 423.693 278.459C419.786 278.697 416.697 281.536 416.697 285.008C416.697 287.558 418.361 289.764 420.789 290.854Z" fill="white"/>
<path d="M456.832 212.791C456.832 97.0022 357.971 3.13379 236.016 3.13379C114.068 3.13379 15.2062 97.0022 15.2062 212.791C15.2062 278.842 47.3878 337.749 97.66 376.176H374.378C424.65 337.749 456.832 278.842 456.832 212.791Z" fill="url(#paint0_linear_297_116)"/>
<path opacity="0.4" d="M297.422 131.318C297.422 132.608 296.993 133.649 296.465 133.649H242.18C241.652 133.649 241.223 132.602 241.223 131.318C241.223 130.027 241.652 128.986 242.18 128.986H296.465C296.993 128.986 297.422 130.033 297.422 131.318Z" fill="white"/>
<path opacity="0.4" d="M405.286 110.287C405.286 111.578 404.032 112.618 402.488 112.618H244.022C242.477 112.618 241.223 111.572 241.223 110.287C241.223 108.996 242.477 107.956 244.022 107.956H402.488C404.032 107.956 405.286 109.003 405.286 110.287ZM349.853 120.201C349.853 121.492 349.021 122.532 347.998 122.532H243.071C242.048 122.532 241.217 121.486 241.217 120.201C241.217 118.91 242.048 117.87 243.071 117.87H347.998C349.021 117.87 349.853 118.91 349.853 120.201Z" fill="white"/>
<path fill-rule="evenodd" clip-rule="evenodd" d="M163.475 365.015V364.476H199.821L163.475 365.015ZM152.13 365.015L120.859 364.476H152.13V365.015Z" fill="white"/>
<path fill-rule="evenodd" clip-rule="evenodd" d="M331.089 232.988H338.732V376.019H331.089V232.988Z" fill="#010101"/>
<path fill-rule="evenodd" clip-rule="evenodd" d="M327.333 232.988H334.976V376.019H327.333V232.988Z" fill="black"/>
<path fill-rule="evenodd" clip-rule="evenodd" d="M355.753 232.988H363.363V376.019H355.753V232.988Z" fill="#010101"/>
<path fill-rule="evenodd" clip-rule="evenodd" d="M351.998 232.988H359.607V376.019H351.998V232.988Z" fill="black"/>
<path fill-rule="evenodd" clip-rule="evenodd" d="M169.29 232.988H176.933V376.019H169.29V232.988Z" fill="black"/>
<path fill-rule="evenodd" clip-rule="evenodd" d="M165.541 232.988H173.184V376.019H165.541V232.988Z" fill="black"/>
<path fill-rule="evenodd" clip-rule="evenodd" d="M193.954 232.988H201.564V376.019H193.954V232.988Z" fill="black"/>
<path fill-rule="evenodd" clip-rule="evenodd" d="M190.205 232.988H197.815V376.019H190.205V232.988Z" fill="black"/>
<path fill-rule="evenodd" clip-rule="evenodd" d="M137.583 227.054H378.12V241.223H137.583V227.054Z" fill="black"/>
<path fill-rule="evenodd" clip-rule="evenodd" d="M244.992 176.075L319.017 171.124L320.199 173.587L310.49 223.877H307.078L233.91 228.138L244.992 176.075Z" fill="url(#paint1_linear_297_116)"/>
<path fill-rule="evenodd" clip-rule="evenodd" d="M242.405 171.124H318.753L307.672 223.219H231.317L242.405 171.124Z" fill="black"/>
<path fill-rule="evenodd" clip-rule="evenodd" d="M286.941 223.125H307.896V227.048H286.941V223.125Z" fill="url(#paint2_linear_297_116)"/>
<path fill-rule="evenodd" clip-rule="evenodd" d="M244.992 174.145L235.184 220.167H305.045L314.853 174.145H244.992Z" fill="#492759"/>
<path fill-rule="evenodd" clip-rule="evenodd" d="M257.849 227.054C260.211 227.329 265.194 226.615 268.739 224.44C272.25 222.26 275.035 220.192 275.035 220.192C275.035 220.192 282.684 221.138 283.173 219.477C283.384 217.259 273.26 214.633 271.854 214.476C270.408 214.32 258.542 215.905 257.327 217.058C256.113 218.205 257.849 227.054 257.849 227.054ZM218.295 220.731C220.658 221.013 225.641 220.298 229.152 218.117C232.663 215.937 236.009 212.759 236.009 212.759C236.009 212.759 243.652 213.442 243.487 212.759C243.289 212.108 233.712 208.304 232.267 208.153C230.855 207.997 218.955 209.588 217.74 210.741C216.526 211.882 218.295 220.731 218.295 220.731Z" fill="white"/>
<path fill-rule="evenodd" clip-rule="evenodd" d="M232.168 211.951C232.92 212.854 237.712 216.25 236.795 217.554C235.877 218.895 233.679 219.452 231.284 217.804C228.888 216.156 227.383 214.22 228.036 213.568C228.696 212.916 232.168 211.951 232.168 211.951Z" fill="white"/>
<path fill-rule="evenodd" clip-rule="evenodd" d="M130.205 167.075C122.925 169.877 124.661 183.206 127.974 192.769C131.254 202.332 165.264 224.904 175.335 227.398C185.407 229.861 224.466 218.274 224.466 218.274C227.119 213.135 224.829 207.683 220.004 208.868C220.004 208.868 181.929 214.533 176.22 208.279C171.626 203.259 137.913 164.117 130.205 167.075Z" fill="url(#paint3_linear_297_116)"/>
<path fill-rule="evenodd" clip-rule="evenodd" d="M161.033 149.761C149.127 172.521 124.661 164.926 118.892 143.162C113.117 121.423 111.612 102.648 131.683 99.3455C153.489 95.7609 172.973 126.994 161.033 149.761Z" fill="url(#paint4_linear_297_116)"/>
<path fill-rule="evenodd" clip-rule="evenodd" d="M123.776 150.262C126.04 157.018 125.347 175.141 125.347 175.141C125.347 175.141 157.555 184.046 156.572 179.935C152.638 163.272 150.638 148.702 147.028 145.65C144.045 143.156 136.699 151.535 123.776 150.262Z" fill="white"/>
<path fill-rule="evenodd" clip-rule="evenodd" d="M189.4 355.414C189.4 355.414 196.317 363.354 205.273 366.907C214.229 370.46 218.262 371.983 216.816 374.164C215.371 376.345 203.894 375.317 195.234 375.599C186.608 375.881 180.774 376.501 180.477 373.888C180.18 371.306 181.559 356.949 181.559 356.949L189.4 355.414Z" fill="black"/>
<path fill-rule="evenodd" clip-rule="evenodd" d="M176.807 293.631C177.137 302.536 180.318 369.32 180.318 369.32C182.543 371.758 197.247 366.75 198.277 363.36C198.277 363.36 204.587 289.019 202.125 288.674C199.703 288.367 176.807 293.631 176.807 293.631Z" fill="url(#paint5_linear_297_116)"/>
<path fill-rule="evenodd" clip-rule="evenodd" d="M264.97 355.728C264.97 355.728 271.893 363.667 280.81 367.252C289.766 370.805 293.799 372.297 292.353 374.509C290.908 376.69 279.431 375.63 270.804 375.912C262.145 376.194 256.311 376.815 256.014 374.233C255.717 371.62 257.096 357.263 257.096 357.263L264.97 355.728Z" fill="black"/>
<path fill-rule="evenodd" clip-rule="evenodd" d="M129.089 266.753C128.04 273.696 116.919 284.569 130.469 295.435C144.012 306.302 231.224 297.115 232.34 298.581C233.455 300.016 255.037 370.473 255.037 370.473C255.037 370.473 273.708 369.915 272.732 362.658C265.524 343.758 266.712 283.416 252.12 276.811C237.547 270.212 129.089 266.753 129.089 266.753Z" fill="url(#paint6_linear_297_116)"/>
<path fill-rule="evenodd" clip-rule="evenodd" d="M164.835 168.88C152.341 165.734 114.998 163.196 109.995 173.336C98.3794 196.88 107.626 287.345 123.796 288.837C134.191 289.802 185.79 288.304 187.526 270.526C189.796 247.138 167 213.317 164.835 168.88Z" fill="url(#paint7_linear_297_116)"/>
<path fill-rule="evenodd" clip-rule="evenodd" d="M108.999 242.702H121.658V302.367H108.999V242.702Z" fill="white"/>
<path fill-rule="evenodd" clip-rule="evenodd" d="M106.306 242.219H118.965V301.884H106.306V242.219Z" fill="black"/>
<path fill-rule="evenodd" clip-rule="evenodd" d="M164.835 168.88C157.555 171.681 159.258 185.042 162.571 194.605C165.884 204.136 199.894 226.709 209.966 229.203C220.037 231.666 260.31 226.84 260.31 226.84C262.937 221.702 260.673 216.25 255.816 217.434C255.816 217.434 216.526 216.344 210.817 210.083C206.263 205.064 172.511 165.922 164.835 168.88Z" fill="url(#paint8_linear_297_116)"/>
<path fill-rule="evenodd" clip-rule="evenodd" d="M152.176 121.047C149.846 118.246 156.209 129.952 154.275 134.871C154.308 129.607 140.864 123.253 146.045 137.547C146.672 139.289 147.45 146.74 147.45 146.74C147.318 149.811 130.779 159.086 125.321 155.514C120.371 152.775 112.53 141.752 107.514 129.388C102.465 117.024 111.315 110.983 111.315 110.983C111.315 110.983 110.101 107.837 114.101 101.921C117.216 97.2525 163.66 88.0029 161.165 108.363C160.637 112.575 155.984 116.222 152.176 121.047Z" fill="black"/>
<path fill-rule="evenodd" clip-rule="evenodd" d="M97.5808 194.079H145.754C149.239 194.079 152.117 197.751 152.117 202.238V236.367C152.117 240.853 149.239 244.526 145.754 244.526H97.5808C94.0696 244.526 91.1986 240.853 91.1986 236.367V202.238C91.1986 197.751 94.0696 194.079 97.5808 194.079Z" fill="white"/>
<path fill-rule="evenodd" clip-rule="evenodd" d="M92.8486 194.179H141.022C144.507 194.179 147.384 197.851 147.384 202.338V236.466C147.384 240.953 144.507 244.625 141.022 244.625H92.8486C89.3374 244.625 86.4664 240.953 86.4664 236.466V202.338C86.4598 197.851 89.3374 194.179 92.8486 194.179ZM152.13 304.967H163.475V365.785H152.13V304.967Z" fill="black"/>
<path fill-rule="evenodd" clip-rule="evenodd" d="M117.328 364.476H199.749V368.743H117.328V364.476Z" fill="black"/>
<path fill-rule="evenodd" clip-rule="evenodd" d="M198.013 375.53C201.359 375.53 204.045 372.973 204.045 369.833C204.045 366.656 201.359 364.106 198.013 364.106C194.7 364.106 192.014 366.656 192.014 369.833C192.007 372.979 194.7 375.53 198.013 375.53ZM157.073 375.404C160.419 375.404 163.106 372.848 163.106 369.708C163.106 366.531 160.413 363.98 157.073 363.98C153.76 363.98 151.074 366.531 151.074 369.708C151.067 372.848 153.76 375.404 157.073 375.404ZM117.592 375.53C120.905 375.53 123.624 372.973 123.624 369.833C123.624 366.656 120.905 364.106 117.592 364.106C114.279 364.106 111.56 366.656 111.56 369.833C111.56 372.979 114.279 375.53 117.592 375.53ZM104.59 295.436H210.982C215.015 295.436 218.295 298.55 218.295 302.348C218.295 306.177 215.015 309.291 210.982 309.291H104.59C100.59 309.291 97.3102 306.177 97.3102 302.348C97.3102 298.55 100.59 295.436 104.59 295.436Z" fill="black"/>
<path fill-rule="evenodd" clip-rule="evenodd" d="M122.733 167.126C122.898 165.133 124.383 159.524 124.383 159.524C124.383 159.524 148.52 157.964 154.262 160.521C155.159 160.922 160.736 168.724 160.736 168.724C145.517 166.104 132.495 165.979 122.733 167.126Z" fill="#EAFFFD"/>
<path fill-rule="evenodd" clip-rule="evenodd" d="M244.992 174.145H314.853L314.411 176.206L244.53 176.332L244.992 174.145ZM304.689 181.314C304.689 181.627 304.425 181.878 304.095 181.878H248.859C248.529 181.878 248.265 181.627 248.265 181.314C248.265 181 248.529 180.75 248.859 180.75H304.095C304.425 180.75 304.689 181 304.689 181.314ZM293.838 184.516C293.838 184.829 293.621 185.08 293.35 185.08H248.067C247.797 185.08 247.579 184.829 247.579 184.516C247.579 184.203 247.797 183.952 248.067 183.952H293.35C293.621 183.952 293.838 184.209 293.838 184.516ZM293.165 188.476C293.165 188.79 292.947 189.04 292.677 189.04H247.394C247.124 189.04 246.906 188.79 246.906 188.476C246.906 188.163 247.124 187.912 247.394 187.912H292.677C292.947 187.912 293.165 188.163 293.165 188.476ZM302.438 191.942C302.438 192.255 302.174 192.506 301.844 192.506H246.549C246.219 192.506 245.955 192.255 245.955 191.942C245.955 191.629 246.219 191.378 246.549 191.378H301.844C302.174 191.378 302.438 191.635 302.438 191.942ZM300.392 200.195C300.392 200.508 300.128 200.759 299.798 200.759H244.503C244.173 200.759 243.909 200.508 243.909 200.195C243.909 199.882 244.173 199.631 244.503 199.631H299.798C300.122 199.631 300.392 199.882 300.392 200.195ZM280.374 195.859C280.374 196.172 280.209 196.423 280.005 196.423H245.586C245.381 196.423 245.216 196.172 245.216 195.859C245.216 195.545 245.381 195.295 245.586 195.295H280.005C280.209 195.295 280.374 195.545 280.374 195.859ZM268.871 203.792C268.871 204.105 268.752 204.356 268.607 204.356H243.758C243.612 204.356 243.494 204.105 243.494 203.792C243.494 203.479 243.612 203.228 243.758 203.228H268.6C268.752 203.228 268.871 203.479 268.871 203.792ZM287.839 208.141C287.839 208.455 287.628 208.705 287.364 208.705H242.88C242.616 208.705 242.405 208.455 242.405 208.141C242.405 207.828 242.622 207.577 242.88 207.577H287.364C287.621 207.577 287.839 207.828 287.839 208.141Z" fill="#1E9183"/>
<path d="M221.7 67.9491C221.7 68.4066 221.311 68.7763 220.829 68.7763C220.347 68.7763 219.958 68.4066 219.958 67.9491C219.958 67.4917 220.347 67.1219 220.829 67.1219C221.311 67.1219 221.7 67.4917 221.7 67.9491ZM284.202 119.242C284.202 119.699 283.813 120.069 283.331 120.069C282.849 120.069 282.453 119.699 282.453 119.242C282.453 118.784 282.843 118.415 283.331 118.415C283.82 118.415 284.202 118.778 284.202 119.242ZM192.885 74.6169C192.885 75.0743 192.495 75.4441 192.014 75.4441C191.532 75.4441 191.142 75.0743 191.142 74.6169C191.142 74.1594 191.532 73.7834 192.014 73.7834C192.495 73.7897 192.885 74.1594 192.885 74.6169ZM122.529 73.7897C122.529 74.2471 122.139 74.6169 121.658 74.6169C121.176 74.6169 120.786 74.2471 120.786 73.7897C120.786 73.3322 121.176 72.9625 121.658 72.9625C122.139 72.9562 122.529 73.3322 122.529 73.7897ZM370.266 172.496C370.266 172.953 369.877 173.323 369.395 173.323C368.913 173.323 368.517 172.953 368.517 172.496C368.517 172.038 368.907 171.669 369.395 171.669C369.884 171.669 370.266 172.038 370.266 172.496ZM373.137 117.193L374.068 118.985L376.147 119.267L374.642 120.664L374.999 122.632L373.137 121.705L371.276 122.632L371.626 120.664L370.121 119.267L372.207 118.985L373.137 117.193ZM157.522 44.4805L158.684 46.7177L161.284 47.0749L159.403 48.817L159.845 51.2798L157.522 50.1142L155.192 51.2798L155.634 48.817L153.753 47.0749L156.354 46.7177L157.522 44.4805ZM418.189 154.034L419.357 156.272L421.958 156.629L420.077 158.371L420.519 160.834L418.189 159.668L415.866 160.834L416.308 158.371L414.427 156.629L417.027 156.272L418.189 154.034Z" fill="white"/>
<path d="M74.9428 150.312C76.645 150.312 78.025 149.002 78.025 147.386C78.025 145.769 76.645 144.459 74.9428 144.459C73.2405 144.459 71.8606 145.769 71.8606 147.386C71.8606 149.002 73.2405 150.312 74.9428 150.312Z" fill="white"/>
<path d="M308.82 85.2391C320.766 96.6319 340.17 96.6821 352.176 85.3457C364.175 74.0093 364.227 55.579 352.288 44.1862C340.349 32.7934 320.938 32.7433 308.939 44.0797C296.934 55.4161 296.881 73.8463 308.82 85.2391Z" fill="white"/>
<path d="M20.0572 221.877L235.184 220.167L239.949 220.336L305.045 220.167L314.853 174.144L53.1034 46.0723" fill="url(#paint9_linear_297_116)"/>
<path opacity="0.2" d="M294.756 72.6622C292.294 72.6622 289.991 73.3014 288.024 74.4169C287.555 67.8995 281.84 62.7546 274.863 62.7546C273.161 62.7546 271.537 63.0617 270.045 63.6194C268.145 57.5783 262.251 53.1729 255.268 53.1729C246.754 53.1729 239.844 59.7278 239.844 67.8181C239.844 68.0249 239.85 68.2317 239.864 68.4322H239.844C231.33 68.4322 224.42 74.9871 224.42 83.0774C224.42 91.1614 231.323 97.7226 239.844 97.7226C240.378 97.7226 240.9 97.6975 241.421 97.6474H293.317C293.792 97.6975 294.267 97.7226 294.756 97.7226C302.042 97.7226 307.949 92.1139 307.949 85.1955C307.949 78.2709 302.042 72.6622 294.756 72.6622Z" fill="url(#paint10_linear_297_116)"/>
</g>
<defs>
<linearGradient id="paint0_linear_297_116" x1="236.019" y1="-0.836771" x2="236.019" y2="376.57" gradientUnits="userSpaceOnUse">
<stop stop-color="#211F26" stop-opacity="0.1"/>
</linearGradient>
<linearGradient id="paint1_linear_297_116" x1="233.909" y1="199.632" x2="320.197" y2="199.632" gradientUnits="userSpaceOnUse">
<stop stop-color="#A1FFF4"/>
<stop offset="0.433" stop-color="white"/>
</linearGradient>
<linearGradient id="paint2_linear_297_116" x1="286.942" y1="225.09" x2="307.898" y2="225.09" gradientUnits="userSpaceOnUse">
<stop stop-color="#A1FFF4"/>
<stop offset="0.433" stop-color="white"/>
</linearGradient>
<linearGradient id="paint3_linear_297_116" x1="125.114" y1="197.325" x2="225.584" y2="197.325" gradientUnits="userSpaceOnUse">
<stop stop-color="#171717"/>
<stop offset="1" stop-color="#0A1C19"/>
</linearGradient>
<linearGradient id="paint4_linear_297_116" x1="136.728" y1="122.927" x2="152.981" y2="168.375" gradientUnits="userSpaceOnUse">
<stop stop-color="#A1FFF4"/>
<stop offset="0.433" stop-color="white"/>
</linearGradient>
<linearGradient id="paint5_linear_297_116" x1="189.947" y1="297.592" x2="192.716" y2="364.65" gradientUnits="userSpaceOnUse">
<stop offset="0.041" stop-color="#080708"/>
<stop offset="1" stop-color="#0D0C0D"/>
</linearGradient>
<linearGradient id="paint6_linear_297_116" x1="185.536" y1="279.643" x2="262.65" y2="372.23" gradientUnits="userSpaceOnUse">
<stop offset="0.041" stop-color="#232323"/>
</linearGradient>
<linearGradient id="paint7_linear_297_116" x1="104.797" y1="227.58" x2="187.691" y2="227.58" gradientUnits="userSpaceOnUse">
<stop stop-color="#232323"/>
</linearGradient>
<linearGradient id="paint8_linear_297_116" x1="162.984" y1="190.54" x2="257.755" y2="225.682" gradientUnits="userSpaceOnUse">
<stop offset="0.484" stop-color="#0F0B13"/>
</linearGradient>
<linearGradient id="paint9_linear_297_116" x1="39.4374" y1="134.504" x2="377.68" y2="203.749" gradientUnits="userSpaceOnUse">
<stop offset="0.004" stop-color="white" stop-opacity="0"/>
<stop offset="0.743" stop-color="#EBFFFD" stop-opacity="0.7421"/>
<stop offset="1" stop-color="#FFF3F3"/>
</linearGradient>
<linearGradient id="paint10_linear_297_116" x1="224.422" y1="75.449" x2="307.951" y2="75.449" gradientUnits="userSpaceOnUse">
<stop stop-color="#A1FFF4"/>
<stop offset="0.089" stop-color="#ACFFF5"/>
<stop offset="0.499" stop-color="#D9FFFA"/>
<stop offset="0.816" stop-color="#F5FFFE"/>
<stop offset="1" stop-color="white"/>
</linearGradient>
<clipPath id="clip0_297_116">
<rect width="493" height="376" fill="white"/>
</clipPath>
</defs>
</svg>
