<svg width="12" height="14" viewBox="0 0 12 14" fill="none" xmlns="http://www.w3.org/2000/svg">
<path d="M9.46392 10.0407L6.78925 12.7951C6.67228 12.9156 6.53338 13.0113 6.38049 13.0766C6.2276 13.1418 6.06372 13.1754 5.89822 13.1754C5.73271 13.1754 5.56883 13.1418 5.41594 13.0766C5.26305 13.0113 5.12415 12.9156 5.00718 12.7951L2.33188 10.0407C1.62664 9.31442 1.14637 8.38907 0.951802 7.38169C0.757239 6.37431 0.857122 5.33014 1.23882 4.38122C1.62052 3.4323 2.26689 2.62124 3.0962 2.05061C3.92551 1.47999 4.9005 1.17542 5.8979 1.17542C6.8953 1.17542 7.87029 1.47999 8.6996 2.05061C9.52891 2.62124 10.1753 3.4323 10.557 4.38122C10.9387 5.33014 11.0386 6.37431 10.844 7.38169C10.6494 8.38907 10.1692 9.31442 9.46392 10.0407Z" stroke="#CECCD4" stroke-width="0.8" stroke-linecap="round" stroke-linejoin="round"/>
</svg>
