<svg width="13" height="13" viewBox="0 0 13 13" fill="none" xmlns="http://www.w3.org/2000/svg">
<path d="M1.45492 9.48601H6.45492V11.4146H4.45492V12.2717H9.25492V11.4146H7.25492V9.48601H12.2549C12.414 9.48582 12.5665 9.41802 12.679 9.29751C12.7915 9.17699 12.8547 9.01359 12.8549 8.84316V0.914586C12.8547 0.74415 12.7915 0.580752 12.679 0.460236C12.5665 0.33972 12.414 0.271927 12.2549 0.271729H1.45492C1.29585 0.271927 1.14334 0.33972 1.03086 0.460236C0.918378 0.580752 0.855105 0.74415 0.854919 0.914586V8.84316C0.855105 9.01359 0.918378 9.17699 1.03086 9.29751C1.14334 9.41802 1.29585 9.48582 1.45492 9.48601ZM1.65492 1.12887H12.0549V8.62887H1.65492V1.12887Z" fill="#CECCD4"/>
</svg>
