<svg width="14" height="15" viewBox="0 0 14 15" fill="none" xmlns="http://www.w3.org/2000/svg">
<path d="M12.5518 3.1538L7.19826 0.122301C7.02671 0.0417567 6.83953 0 6.65001 0C6.4605 0 6.27331 0.0417567 6.10176 0.122301L0.748262 3.1538C0.583662 3.24881 0.446583 3.38497 0.350469 3.54893C0.254356 3.71289 0.202508 3.89901 0.200012 4.08905V10.0876C0.202508 10.2776 0.254356 10.4637 0.350469 10.6277C0.446583 10.7916 0.583662 10.9278 0.748262 11.0228L2.16726 11.8291C2.53796 12.0481 2.96226 12.1598 3.39276 12.1516C4.39251 12.1516 4.97301 11.5388 4.97301 10.5068V4.60505C4.97301 4.56228 4.95602 4.52127 4.92578 4.49103C4.89554 4.46079 4.85453 4.4438 4.81176 4.4438H4.13451C4.09175 4.4438 4.05073 4.46079 4.02049 4.49103C3.99025 4.52127 3.97326 4.56228 3.97326 4.60505V10.5068C3.97326 10.9906 3.48951 11.4421 2.71551 11.0551L1.23201 10.2166C1.21199 10.2015 1.19573 10.1821 1.18454 10.1597C1.17334 10.1373 1.16751 10.1126 1.16751 10.0876V4.08905C1.16973 4.02946 1.19252 3.97248 1.23201 3.9278L6.55326 0.928551H6.74676L12.068 3.9278C12.1075 3.97248 12.1303 4.02946 12.1325 4.08905V10.0876C12.1325 10.1126 12.1267 10.1373 12.1155 10.1597C12.1043 10.1821 12.088 10.2015 12.068 10.2166L6.74676 13.2158C6.71735 13.2328 6.68398 13.2417 6.65001 13.2417C6.61605 13.2417 6.58268 13.2328 6.55326 13.2158L5.19876 12.4418C5.18102 12.4259 5.15806 12.4172 5.13426 12.4172C5.11046 12.4172 5.0875 12.4259 5.06976 12.4418L4.26351 12.7966C4.16676 12.8288 4.03776 12.8611 4.29576 13.0223L6.10176 14.0221C6.26466 14.1289 6.45521 14.1858 6.65001 14.1858C6.84481 14.1858 7.03537 14.1289 7.19826 14.0221L12.5518 11.0228C12.7164 10.9278 12.8534 10.7916 12.9496 10.6277C13.0457 10.4637 13.0975 10.2776 13.1 10.0876V4.08905C13.0975 3.89901 13.0457 3.71289 12.9496 3.54893C12.8534 3.38497 12.7164 3.24881 12.5518 3.1538Z" fill="#DEDDE2"/>
<path d="M8.2947 9.11997C6.8757 9.11997 6.58545 8.79747 6.45645 8.12022C6.45645 8.08601 6.44286 8.0532 6.41867 8.029C6.39448 8.00481 6.36167 7.99122 6.32745 7.99122H5.61795C5.58374 7.99122 5.55093 8.00481 5.52674 8.029C5.50254 8.0532 5.48895 8.08601 5.48895 8.12022C5.48895 8.99097 5.9727 10.0552 8.2947 10.0552C9.9717 10.0552 10.9392 9.41022 10.9392 8.28147C10.9392 7.15272 10.1652 6.83022 8.52045 6.63672C6.8757 6.44322 6.71445 6.31422 6.71445 5.92722C6.71445 5.54022 6.84345 5.21772 8.06895 5.21772C9.29445 5.21772 9.5847 5.44347 9.74595 6.15297C9.75349 6.18994 9.77376 6.2231 9.80322 6.24667C9.83268 6.27024 9.86948 6.28273 9.9072 6.28197H10.5845L10.7135 6.21747C10.7251 6.20438 10.734 6.18905 10.7395 6.17242C10.7451 6.15578 10.7472 6.13819 10.7457 6.12072C10.649 4.86297 9.7782 4.28247 8.06895 4.28247C6.3597 4.28247 5.6502 4.92747 5.6502 5.95947C5.6502 6.99147 6.5532 7.41072 8.00445 7.57197C9.4557 7.73322 9.9072 7.95897 9.9072 8.31372C9.9072 8.66847 9.42345 9.11997 8.2947 9.11997Z" fill="#DEDDE2"/>
</svg>
