<svg width="16" height="13" viewBox="0 0 16 13" fill="none" xmlns="http://www.w3.org/2000/svg">
<path d="M5.22048 9.96667C5.22048 10.3574 5.07122 10.7322 4.80555 11.0085C4.53987 11.2848 4.17954 11.44 3.80381 11.44C3.42809 11.44 3.06775 11.2848 2.80208 11.0085C2.5364 10.7322 2.38715 10.3574 2.38715 9.96667H0.887146C0.887146 10.7712 1.19444 11.5427 1.74142 12.1116C2.2884 12.6804 3.03026 13 3.80381 13C4.57736 13 5.31923 12.6804 5.86621 12.1116C6.41319 11.5427 6.72048 10.7712 6.72048 9.96667V5.63335H5.22048V9.96667ZM5.63715 3.46668C5.75252 3.46668 5.8653 3.4311 5.96123 3.36444C6.05716 3.29778 6.13192 3.20303 6.17608 3.09218C6.22023 2.98133 6.23178 2.85935 6.20927 2.74166C6.18676 2.62398 6.13121 2.51588 6.04962 2.43104C5.96804 2.3462 5.8641 2.28842 5.75095 2.26501C5.63779 2.2416 5.5205 2.25362 5.41391 2.29953C5.30732 2.34545 5.21622 2.42321 5.15212 2.52297C5.08802 2.62274 5.05381 2.74003 5.05381 2.86002C5.05381 3.02092 5.11527 3.17522 5.22467 3.289C5.33406 3.40277 5.48244 3.46668 5.63715 3.46668ZM8.38715 13H9.55381V10.4H8.38715V13ZM14.1455 1.73335H11.6455C11.4417 1.21869 11.095 0.778892 10.6497 0.470146C10.2044 0.1614 9.68067 -0.00227687 9.14548 2.39273e-05H5.88715C5.18641 -0.00231787 4.51312 0.283184 4.01374 0.794428C3.51435 1.30567 3.22926 2.00131 3.22048 2.73002V8.94401C3.22048 9.10491 3.28194 9.25921 3.39133 9.37298C3.50073 9.48676 3.6491 9.55067 3.80381 9.55067C3.95852 9.55067 4.1069 9.48676 4.21629 9.37298C4.32569 9.25921 4.38715 9.10491 4.38715 8.94401V2.73002C4.39588 2.32311 4.55803 1.93608 4.83863 1.65236C5.11923 1.36865 5.4958 1.21098 5.88715 1.21336H9.08715C9.28511 1.20525 9.48265 1.23824 9.66822 1.3104C9.85379 1.38256 10.0237 1.49244 10.168 1.63363C10.3123 1.77482 10.4281 1.94449 10.5086 2.13273C10.5892 2.32098 10.6329 2.52402 10.6371 2.73002C10.6262 3.14074 10.4599 3.5304 10.1744 3.81437C9.88889 4.09834 9.50716 4.25369 9.11215 4.24668C8.95744 4.24668 8.80906 4.3106 8.69967 4.42437C8.59027 4.53814 8.52881 4.69245 8.52881 4.85335C8.52881 5.01425 8.59027 5.16855 8.69967 5.28233C8.80906 5.3961 8.95744 5.46001 9.11215 5.46001C9.77867 5.46506 10.4227 5.2095 10.9166 4.744C11.4105 4.2785 11.7182 3.63702 11.7788 2.94669H14.1455C14.221 2.94669 14.2958 2.96215 14.3655 2.99221C14.4353 3.02226 14.4987 3.06631 14.5521 3.12184C14.6055 3.17736 14.6478 3.24329 14.6767 3.31584C14.7056 3.38839 14.7205 3.46615 14.7205 3.54468V10.4H13.0538V13H15.8871V3.54468C15.885 3.06499 15.7008 2.6056 15.3746 2.2664C15.0485 1.9272 14.6067 1.73563 14.1455 1.73335Z" fill="#CECCD4"/>
</svg>
