<svg width="13" height="15" viewBox="0 0 13 15" fill="none" xmlns="http://www.w3.org/2000/svg">
<path d="M12.4055 11.3962L7.26141 0.47186C7.13119 0.197964 6.8613 0.0175058 6.55843 0.00183274C6.25486 -0.0185068 5.96517 0.131669 5.80683 0.391466L0.227453 9.42818C0.0542442 9.70675 0.0578884 10.0604 0.236801 10.3353L2.96461 14.5596C3.17655 14.8853 3.57747 15.0327 3.94991 14.9219L11.866 12.5804C12.1071 12.5099 12.3059 12.3383 12.4108 12.11C12.5143 11.8828 12.5125 11.6216 12.4059 11.3958L12.4055 11.3962ZM11.2538 11.8647L4.5366 13.851C4.33169 13.9119 4.135 13.7343 4.17763 13.5276L6.5775 2.03637C6.62237 1.82137 6.91927 1.78734 7.01312 1.98627L11.4558 11.4205C11.4955 11.5055 11.496 11.6038 11.4571 11.6892C11.4182 11.7747 11.3437 11.8388 11.2535 11.8647H11.2538Z" fill="#CECCD4"/>
</svg>
