<svg width="14" height="12" viewBox="0 0 14 12" fill="none" xmlns="http://www.w3.org/2000/svg">
<path d="M4.00113 1.31915C3.79411 1.43868 3.57625 1.76829 3.55097 2.48727C3.53896 2.82879 3.25237 3.0959 2.91086 3.08389C2.56935 3.07188 2.30223 2.7853 2.31423 2.44378C2.34523 1.56234 2.62397 0.685312 3.38238 0.247443C4.14295 -0.191669 5.04472 0.00773603 5.82553 0.42429C6.12704 0.58514 6.24106 0.959954 6.08021 1.26145C5.91936 1.56296 5.54454 1.67698 5.24305 1.51614C4.60496 1.17572 4.20878 1.19926 4.00113 1.31915ZM7.31887 2.39239C7.58202 2.17437 7.97207 2.21096 8.19009 2.47411C8.64746 3.02614 9.08619 3.65563 9.48442 4.34544C10.3427 5.83187 10.8718 7.35477 11.0145 8.63216C11.0857 9.2698 11.0639 9.87659 10.915 10.397C10.7649 10.9214 10.4726 11.396 9.98239 11.679C9.3893 12.0214 8.70447 11.9728 8.07767 11.7446C7.44864 11.5156 6.80123 11.0819 6.18406 10.5186C5.93167 10.2882 5.91383 9.8968 6.14421 9.64443C6.37459 9.39206 6.76596 9.37416 7.01835 9.60458C7.56212 10.1009 8.07315 10.426 8.50102 10.5818C8.93118 10.7384 9.20178 10.7008 9.36364 10.6073C9.49927 10.529 9.63573 10.3694 9.72524 10.0565C9.81591 9.73972 9.84454 9.30593 9.78464 8.76944C9.66502 7.6985 9.20623 6.33855 8.41275 4.96419C8.04778 4.33206 7.64839 3.76 7.23714 3.2636C7.01913 3.00045 7.05572 2.61039 7.31887 2.39239Z" fill="#DEDDE2"/>
<path d="M11.9625 6.13184C11.9625 5.89278 11.786 5.5393 11.1759 5.15792C10.8862 4.97677 10.7982 4.59502 10.9793 4.30526C11.1605 4.0155 11.5422 3.92747 11.832 4.10862C12.5798 4.57618 13.2 5.2561 13.2 6.13184C13.2 7.01006 12.5765 7.69128 11.8253 8.15921C11.5352 8.33989 11.1536 8.25129 10.9729 7.96122C10.7922 7.67115 10.8809 7.28956 11.1709 7.10887C11.7848 6.72648 11.9625 6.37161 11.9625 6.13184ZM9.37415 8.46842C9.4314 8.80536 9.20469 9.12488 8.86776 9.18213C8.16106 9.30217 7.39651 9.36735 6.6 9.36735C4.88362 9.36735 3.30015 9.06424 2.12261 8.54903C1.53476 8.29187 1.02019 7.96963 0.643936 7.58048C0.264806 7.18832 0 6.69786 0 6.13184C0 5.44702 0.384518 4.87818 0.895521 4.44949C1.40837 4.01924 2.10764 3.67541 2.90411 3.42259C3.22983 3.31921 3.57767 3.49944 3.68106 3.82515C3.78444 4.15086 3.60421 4.49871 3.2785 4.6021C2.57676 4.82485 2.03973 5.10488 1.69087 5.39755C1.34015 5.69178 1.2375 5.94491 1.2375 6.13184C1.2375 6.28841 1.30743 6.48636 1.53363 6.72034C1.76272 6.9573 2.12408 7.19896 2.61862 7.41532C3.60588 7.8472 5.01302 8.12985 6.6 8.12985C7.32992 8.12985 8.02504 8.07003 8.66052 7.96204C8.99745 7.90487 9.31697 8.13158 9.37415 8.46842Z" fill="#DEDDE2"/>
<path d="M4.01931 10.6073C4.22633 10.7269 4.62072 10.7507 5.25601 10.4131C5.55778 10.2527 5.9324 10.3674 6.09275 10.6691C6.25312 10.9709 6.13848 11.3455 5.83672 11.5059C5.05787 11.9197 4.15897 12.1169 3.40056 11.679C2.64 11.2399 2.3618 10.3592 2.33214 9.47476C2.32069 9.13321 2.58827 8.8471 2.9298 8.83564C3.27134 8.82417 3.5575 9.09172 3.56895 9.43327C3.59319 10.1561 3.81166 10.4875 4.01931 10.6073ZM3.28989 7.19745C2.96951 7.07856 2.80617 6.72247 2.92506 6.40208C3.17446 5.73 3.50023 5.03527 3.89849 4.34548C4.75668 2.85905 5.81095 1.63929 6.84587 0.877101C7.36253 0.496594 7.89886 0.212068 8.42405 0.0808198C8.9532 -0.0514367 9.51041 -0.0355365 10.0005 0.247477C10.5936 0.589885 10.894 1.20731 11.0098 1.8642C11.1259 2.52346 11.0741 3.30095 10.8948 4.11713C10.8214 4.45089 10.4914 4.66203 10.1577 4.58871C9.82391 4.51538 9.61279 4.18538 9.68613 3.85161C9.84404 3.13251 9.87003 2.52741 9.79107 2.07895C9.71163 1.62811 9.54365 1.41265 9.38179 1.31919C9.24624 1.24089 9.03983 1.20248 8.7241 1.28139C8.40433 1.36131 8.01437 1.55343 7.57972 1.87353C6.71204 2.51256 5.76369 3.58986 4.9702 4.96423C4.60524 5.59635 4.30952 6.22826 4.08525 6.83262C3.96636 7.15299 3.61026 7.31633 3.28989 7.19745Z" fill="#DEDDE2"/>
<path d="M7.80388 6.01699C7.80388 6.63637 7.30177 7.13848 6.68239 7.13848C6.06302 7.13848 5.56091 6.63637 5.56091 6.01699C5.56091 5.39761 6.06302 4.89551 6.68239 4.89551C7.30177 4.89551 7.80388 5.39761 7.80388 6.01699Z" fill="#DEDDE2"/>
</svg>
