<svg width="15" height="11" viewBox="0 0 15 11" fill="none" xmlns="http://www.w3.org/2000/svg">
<path d="M8.05713 0C7.12282 0 6.31956 0.271627 5.68905 0.853765C5.06307 1.43171 4.65356 2.27308 4.42639 3.32177C4.37681 3.55064 4.48493 3.78523 4.68416 3.88106C4.88338 3.97688 5.11771 3.90701 5.24283 3.71448C5.53117 3.27079 5.81907 3.00418 6.09569 2.86736C6.36359 2.73486 6.65236 2.70801 6.98312 2.80345C7.31692 2.89975 7.57531 3.18181 7.98097 3.65703L7.99408 3.67239C8.29987 4.03066 8.67289 4.46771 9.1831 4.80679C9.71252 5.15865 10.3713 5.39506 11.2445 5.39506C12.1787 5.39506 12.982 5.12342 13.6126 4.5413C14.2385 3.96335 14.648 3.12198 14.8752 2.07329C14.9247 1.84442 14.8166 1.60983 14.6174 1.514C14.4182 1.41818 14.1838 1.48804 14.0587 1.68057C13.7704 2.12427 13.4825 2.39087 13.2059 2.5277C12.938 2.6602 12.6492 2.68705 12.3184 2.59162C11.9847 2.49531 11.7262 2.21325 11.3206 1.73802L11.3075 1.72266C11.0017 1.36439 10.6287 0.927344 10.1185 0.588269C9.58905 0.236412 8.93025 0 8.05713 0Z" fill="#DEDDE2"/>
<path d="M4.12982 4.9353C3.19551 4.9353 2.39225 5.20693 1.76174 5.78907C1.13576 6.36702 0.726254 7.20837 0.499085 8.25711C0.449506 8.48595 0.557622 8.72049 0.756847 8.81633C0.956072 8.91217 1.1904 8.84232 1.31553 8.64977C1.60387 8.2061 1.89176 7.93948 2.16839 7.80266C2.43628 7.67016 2.72505 7.64331 3.05582 7.73875C3.38961 7.83505 3.648 8.11713 4.05366 8.59238L4.06677 8.60769C4.37255 8.96592 4.74559 9.40302 5.25579 9.74212C5.78522 10.094 6.44402 10.3304 7.31714 10.3304C8.25144 10.3304 9.0547 10.0588 9.68526 9.47659C10.3112 8.89863 10.7207 8.05729 10.9479 7.00859C10.9974 6.77971 10.8893 6.54513 10.6901 6.4493C10.4909 6.35347 10.2565 6.42334 10.1314 6.61588C9.84308 7.05958 9.5552 7.32617 9.27857 7.46299C9.01068 7.59549 8.72191 7.62235 8.39114 7.52692C8.05735 7.43061 7.79896 7.14855 7.3933 6.67332L7.38019 6.65796C7.0744 6.2997 6.70137 5.86265 6.19116 5.52356C5.66175 5.17171 5.00294 4.9353 4.12982 4.9353Z" fill="#DEDDE2"/>
</svg>
